{
  "version": "1.1.6",
  "modules": [
    {
      "id": 63,
      "plugin": "Core",
      "version": "1.1.6",
      "model": "AudioInterface",
      "params": [],
      "leftModuleId": 121,
      "data": {
        "audio": {
          "driver": 5,
          "offset": 41,
          "maxChannels": 8,
          "sampleRate": 44100,
          "blockSize": 256
        }
      },
      "pos": [
        90,
        1
      ]
    },
    {
      "id": 65,
      "plugin": "VultModulesFree",
      "version": "1.14",
      "model": "Caudal",
      "params": [
        {
          "id": 0,
          "value": 0.392999053
        },
        {
          "id": 1,
          "value": 0.0
        },
        {
          "id": 2,
          "value": 0.0
        },
        {
          "id": 3,
          "value": 0.0
        },
        {
          "id": 4,
          "value": 0.0
        },
        {
          "id": 5,
          "value": 0.0
        },
        {
          "id": 6,
          "value": 0.0
        },
        {
          "id": 7,
          "value": 0.0
        },
        {
          "id": 8,
          "value": 0.0
        }
      ],
      "leftModuleId": 113,
      "rightModuleId": 84,
      "data": {
        "phi1": 5.15157604,
        "phi2": 5.3020978,
        "phi3": 0.244845986,
        "phi4": -0.34623301,
        "w1": -2.21512008,
        "w2": -3.67762589,
        "w3": -7.81628609,
        "w4": 9.43823528,
        "dx1": -1.85939932,
        "dy1": -3.95300174,
        "dx2": 1.09715319,
        "dy2": -5.03913164,
        "dx3": 7.29538584,
        "dy3": -0.161447525,
        "dx4": -0.151217803,
        "dy4": -8.13958931,
        "store_phi1": 5.15157604,
        "store_phi2": 5.3020978,
        "store_phi3": 0.244845986,
        "store_phi4": -0.34623301,
        "store_w1": -2.21512008,
        "store_w2": -3.67762589,
        "store_w3": -7.81628609,
        "store_w4": 9.43823528,
        "store_dx1": -1.85939932,
        "store_dy1": -3.95300174,
        "store_dx2": 1.09715319,
        "store_dy2": -5.03913164,
        "store_dx3": 7.29538584,
        "store_dy3": -0.161447525,
        "store_dx4": -0.151217803,
        "store_dy4": -8.13958931,
        "model": 0
      },
      "pos": [
        34,
        1
      ]
    },
    {
      "id": 68,
      "plugin": "VultModulesFree",
      "version": "1.14",
      "model": "Basal",
      "params": [
        {
          "id": 0,
          "value": 0.0
        },
        {
          "id": 1,
          "value": -0.485999465
        },
        {
          "id": 2,
          "value": 1.0
        },
        {
          "id": 3,
          "value": 1.0
        },
        {
          "id": 4,
          "value": 1.0
        },
        {
          "id": 5,
          "value": 1.0
        }
      ],
      "leftModuleId": 84,
      "rightModuleId": 101,
      "pos": [
        50,
        1
      ]
    },
    {
      "id": 84,
      "plugin": "VultModulesFree",
      "version": "1.14",
      "model": "Leakage",
      "params": [
        {
          "id": 0,
          "value": 0.200000003
        },
        {
          "id": 1,
          "value": 0.0
        },
        {
          "id": 2,
          "value": 0.396997601
        },
        {
          "id": 3,
          "value": 0.318000078
        },
        {
          "id": 4,
          "value": 0.0
        },
        {
          "id": 5,
          "value": 1.0
        }
      ],
      "leftModuleId": 65,
      "rightModuleId": 68,
      "pos": [
        44,
        1
      ]
    },
    {
      "id": 90,
      "plugin": "VultModulesFree",
      "version": "1.14",
      "model": "Trummor2",
      "params": [
        {
          "id": 0,
          "value": 0.0608000793
        },
        {
          "id": 1,
          "value": 0.437000513
        },
        {
          "id": 2,
          "value": 0.494999886
        },
        {
          "id": 3,
          "value": 0.757000029
        },
        {
          "id": 4,
          "value": 0.0085000284
        },
        {
          "id": 5,
          "value": -0.642999768
        },
        {
          "id": 6,
          "value": 0.00100000005
        },
        {
          "id": 7,
          "value": 1.0
        },
        {
          "id": 8,
          "value": 1.0
        },
        {
          "id": 9,
          "value": 1.0
        },
        {
          "id": 10,
          "value": 0.0
        },
        {
          "id": 11,
          "value": 0.862000048
        },
        {
          "id": 12,
          "value": -0.00450036395
        },
        {
          "id": 13,
          "value": 1.0
        },
        {
          "id": 14,
          "value": -0.672000289
        },
        {
          "id": 15,
          "value": 0.743850172
        },
        {
          "id": 16,
          "value": 1.0
        },
        {
          "id": 17,
          "value": 1.0
        },
        {
          "id": 18,
          "value": 0.00100000005
        },
        {
          "id": 19,
          "value": 0.0
        },
        {
          "id": 20,
          "value": 1.0
        },
        {
          "id": 21,
          "value": 1.0
        },
        {
          "id": 22,
          "value": 0.0
        },
        {
          "id": 23,
          "value": 0.171999753
        },
        {
          "id": 24,
          "value": 0.0
        },
        {
          "id": 25,
          "value": 0.0
        },
        {
          "id": 26,
          "value": 0.0
        },
        {
          "id": 27,
          "value": 0.0
        },
        {
          "id": 28,
          "value": 0.0
        },
        {
          "id": 29,
          "value": 0.0
        },
        {
          "id": 30,
          "value": 0.0
        },
        {
          "id": 31,
          "value": 0.0
        },
        {
          "id": 32,
          "value": 0.0
        }
      ],
      "leftModuleId": 104,
      "rightModuleId": 113,
      "data": {
        "mod_a": 0,
        "mod_b": 0,
        "mod_c": 0,
        "mod_d": 0,
        "mk2": true
      },
      "pos": [
        10,
        1
      ]
    },
    {
      "id": 101,
      "plugin": "VultModulesFree",
      "version": "1.14",
      "model": "Rescomb",
      "params": [
        {
          "id": 0,
          "value": 0.0
        },
        {
          "id": 1,
          "value": 0.623000145
        },
        {
          "id": 2,
          "value": 0.506549954
        },
        {
          "id": 3,
          "value": -0.506999969
        },
        {
          "id": 4,
          "value": -0.222000062
        }
      ],
      "leftModuleId": 68,
      "rightModuleId": 109,
      "pos": [
        56,
        1
      ]
    },
    {
      "id": 104,
      "plugin": "Valley",
      "version": "1.1.7",
      "model": "uGraph",
      "params": [
        {
          "id": 0,
          "value": 0.0
        },
        {
          "id": 1,
          "value": 0.0
        },
        {
          "id": 2,
          "value": 1.0
        },
        {
          "id": 3,
          "value": 0.0
        },
        {
          "id": 4,
          "value": 0.0
        },
        {
          "id": 5,
          "value": 0.106500022
        },
        {
          "id": 6,
          "value": 0.5
        },
        {
          "id": 7,
          "value": 0.100000001
        },
        {
          "id": 8,
          "value": 0.00999999978
        },
        {
          "id": 9,
          "value": 0.200000003
        }
      ],
      "rightModuleId": 90,
      "data": {
        "sequencerMode": 0,
        "triggerOutputMode": 0,
        "accOutputMode": 0,
        "extClockResolution": 0,
        "chaosKnobMode": 0,
        "runMode": 0,
        "panelStyle": 0,
        "running": 1
      },
      "pos": [
        0,
        1
      ]
    },
    {
      "id": 109,
      "plugin": "Southpole",
      "version": "1.0.0",
      "model": "Annuli",
      "params": [
        {
          "id": 0,
          "value": 0.0
        },
        {
          "id": 1,
          "value": 0.0
        },
        {
          "id": 2,
          "value": 30.0
        },
        {
          "id": 3,
          "value": 0.5
        },
        {
          "id": 4,
          "value": 1.0
        },
        {
          "id": 5,
          "value": 0.5
        },
        {
          "id": 6,
          "value": 0.5
        },
        {
          "id": 7,
          "value": 0.0
        },
        {
          "id": 8,
          "value": 0.0
        },
        {
          "id": 9,
          "value": 0.0
        },
        {
          "id": 10,
          "value": 0.0
        },
        {
          "id": 11,
          "value": 0.0
        }
      ],
      "leftModuleId": 101,
      "rightModuleId": 119,
      "data": {
        "polyphony": 0,
        "model": 4,
        "easterEgg": false
      },
      "pos": [
        66,
        1
      ]
    },
    {
      "id": 113,
      "plugin": "VultModulesFree",
      "version": "1.14",
      "model": "Disjoint",
      "params": [
        {
          "id": 0,
          "value": -0.335999995
        },
        {
          "id": 1,
          "value": 1.0
        },
        {
          "id": 2,
          "value": 0.147000015
        },
        {
          "id": 3,
          "value": 0.0
        }
      ],
      "leftModuleId": 90,
      "rightModuleId": 65,
      "pos": [
        30,
        1
      ]
    },
    {
      "id": 115,
      "plugin": "EricaCopies",
      "version": "1.0.4",
      "model": "PicoDrums",
      "params": [
        {
          "id": 0,
          "value": -1.17499995
        },
        {
          "id": 1,
          "value": 1.0
        },
        {
          "id": 2,
          "value": 0.0
        }
      ],
      "leftModuleId": 131,
      "rightModuleId": 121,
      "data": {
        "mode": 1,
        "pitch_value1": 10.0,
        "pitch_value2": 10.0,
        "sample_value1": 0.838279724,
        "sample_value2": 3.02392387,
        "last_sample_value1": -9.16172028,
        "last_sample_value2": -6.97607613,
        "volume_value1": 0.746637702,
        "volume_value2": 1.25,
        "decay_value1": 0.100000001,
        "decay_value2": 0.100000001,
        "last_decay_value1": -0.0,
        "last_decay_value2": 0.0,
        "CVparam": 2
      },
      "pos": [
        80,
        1
      ]
    },
    {
      "id": 119,
      "plugin": "Bogaudio",
      "version": "1.1.35",
      "model": "Bogaudio-CVD",
      "params": [
        {
          "id": 0,
          "value": 0.75
        },
        {
          "id": 1,
          "value": 1.0
        },
        {
          "id": 2,
          "value": 0.0
        }
      ],
      "leftModuleId": 109,
      "rightModuleId": 131,
      "data": {},
      "pos": [
        72,
        1
      ]
    },
    {
      "id": 121,
      "plugin": "Geodesics",
      "version": "1.2.0",
      "model": "Energy",
      "params": [
        {
          "id": 0,
          "value": 0.0
        },
        {
          "id": 1,
          "value": 0.0
        },
        {
          "id": 2,
          "value": 0.0
        },
        {
          "id": 3,
          "value": 0.0
        },
        {
          "id": 4,
          "value": 0.0
        },
        {
          "id": 5,
          "value": 2.06400013
        },
        {
          "id": 6,
          "value": 1.87499964
        },
        {
          "id": 7,
          "value": 1.0
        },
        {
          "id": 8,
          "value": 1.0
        },
        {
          "id": 9,
          "value": 0.0
        }
      ],
      "leftModuleId": 115,
      "rightModuleId": 63,
      "data": {
        "panelTheme": 1,
        "oscM_phase": 253016320,
        "oscC_phase": 3837552608,
        "osc1M_phase": 0,
        "osc1C_phase": 0,
        "osc2M_phase": 0,
        "osc2C_phase": 0,
        "osc3M_phase": 0,
        "osc3C_phase": 0,
        "osc4M_phase": 0,
        "osc4C_phase": 0,
        "osc5M_phase": 0,
        "osc5C_phase": 0,
        "osc6M_phase": 0,
        "osc6C_phase": 0,
        "osc7M_phase": 0,
        "osc7C_phase": 0,
        "osc8M_phase": 0,
        "osc8C_phase": 0,
        "osc9M_phase": 0,
        "osc9C_phase": 0,
        "osc10M_phase": 0,
        "osc10C_phase": 0,
        "osc11M_phase": 0,
        "osc11C_phase": 0,
        "osc12M_phase": 0,
        "osc12C_phase": 0,
        "osc13M_phase": 0,
        "osc13C_phase": 0,
        "osc14M_phase": 0,
        "osc14C_phase": 0,
        "osc15M_phase": 0,
        "osc15C_phase": 0,
        "routing": 2,
        "planck0": 1,
        "planck1": 1,
        "modtype0": 1,
        "modtype1": 1,
        "cross": 1
      },
      "pos": [
        83,
        1
      ]
    },
    {
      "id": 122,
      "plugin": "repelzen",
      "version": "1.1.0",
      "model": "rexmix",
      "params": [
        {
          "id": 0,
          "value": -15.3299923
        },
        {
          "id": 1,
          "value": 10.0
        },
        {
          "id": 2,
          "value": 7.0
        },
        {
          "id": 3,
          "value": 7.0
        },
        {
          "id": 4,
          "value": -6.98996592
        },
        {
          "id": 5,
          "value": -7.34994602
        },
        {
          "id": 6,
          "value": 0.0
        },
        {
          "id": 7,
          "value": -12.0
        },
        {
          "id": 8,
          "value": 0.0
        },
        {
          "id": 9,
          "value": 0.0
        },
        {
          "id": 10,
          "value": 0.0
        },
        {
          "id": 11,
          "value": 0.0
        },
        {
          "id": 12,
          "value": 0.0
        },
        {
          "id": 13,
          "value": 0.0
        },
        {
          "id": 14,
          "value": 0.0
        },
        {
          "id": 15,
          "value": 0.0
        },
        {
          "id": 16,
          "value": 0.0
        },
        {
          "id": 17,
          "value": 0.0
        },
        {
          "id": 18,
          "value": 20.0
        },
        {
          "id": 19,
          "value": 0.0
        },
        {
          "id": 20,
          "value": 0.0
        },
        {
          "id": 21,
          "value": 0.0
        },
        {
          "id": 22,
          "value": 0.0
        },
        {
          "id": 23,
          "value": 0.0
        },
        {
          "id": 24,
          "value": 12.5
        },
        {
          "id": 25,
          "value": 0.0
        },
        {
          "id": 26,
          "value": 0.0
        },
        {
          "id": 27,
          "value": 0.0
        },
        {
          "id": 28,
          "value": 0.0
        },
        {
          "id": 29,
          "value": 0.0
        },
        {
          "id": 30,
          "value": 15.0
        },
        {
          "id": 31,
          "value": 0.0
        },
        {
          "id": 32,
          "value": 0.0
        },
        {
          "id": 33,
          "value": 0.0
        },
        {
          "id": 34,
          "value": 0.0
        },
        {
          "id": 35,
          "value": 0.0
        },
        {
          "id": 36,
          "value": -1.0
        },
        {
          "id": 37,
          "value": 0.0
        },
        {
          "id": 38,
          "value": 0.0
        },
        {
          "id": 39,
          "value": 0.0
        },
        {
          "id": 40,
          "value": 0.0
        },
        {
          "id": 41,
          "value": 0.0
        },
        {
          "id": 42,
          "value": 1.0
        },
        {
          "id": 43,
          "value": 1.0
        },
        {
          "id": 44,
          "value": 1.0
        },
        {
          "id": 45,
          "value": 1.0
        },
        {
          "id": 46,
          "value": 0.0
        },
        {
          "id": 47,
          "value": 0.0
        },
        {
          "id": 48,
          "value": 0.0
        },
        {
          "id": 49,
          "value": 0.0
        },
        {
          "id": 50,
          "value": 0.0
        },
        {
          "id": 51,
          "value": 0.0
        }
      ],
      "pos": [
        74,
        0
      ]
    },
    {
      "id": 123,
      "plugin": "repelzen",
      "version": "1.1.0",
      "model": "rexmix",
      "params": [
        {
          "id": 0,
          "value": -15.0
        },
        {
          "id": 1,
          "value": 10.0
        },
        {
          "id": 2,
          "value": 7.0
        },
        {
          "id": 3,
          "value": 7.0
        },
        {
          "id": 4,
          "value": -4.46999359
        },
        {
          "id": 5,
          "value": -4.55996323
        },
        {
          "id": 6,
          "value": 0.0
        },
        {
          "id": 7,
          "value": -12.0
        },
        {
          "id": 8,
          "value": 0.0
        },
        {
          "id": 9,
          "value": 0.0
        },
        {
          "id": 10,
          "value": 0.0
        },
        {
          "id": 11,
          "value": 0.0
        },
        {
          "id": 12,
          "value": 0.0
        },
        {
          "id": 13,
          "value": 0.0
        },
        {
          "id": 14,
          "value": 0.0
        },
        {
          "id": 15,
          "value": 0.0
        },
        {
          "id": 16,
          "value": 0.0
        },
        {
          "id": 17,
          "value": 0.0
        },
        {
          "id": 18,
          "value": 20.0
        },
        {
          "id": 19,
          "value": 0.0
        },
        {
          "id": 20,
          "value": 0.0
        },
        {
          "id": 21,
          "value": 0.0
        },
        {
          "id": 22,
          "value": 0.0
        },
        {
          "id": 23,
          "value": 0.0
        },
        {
          "id": 24,
          "value": 12.5
        },
        {
          "id": 25,
          "value": 0.0
        },
        {
          "id": 26,
          "value": 0.0
        },
        {
          "id": 27,
          "value": 0.0
        },
        {
          "id": 28,
          "value": 0.0
        },
        {
          "id": 29,
          "value": 0.0
        },
        {
          "id": 30,
          "value": 15.0
        },
        {
          "id": 31,
          "value": 0.0
        },
        {
          "id": 32,
          "value": 0.0
        },
        {
          "id": 33,
          "value": 0.0
        },
        {
          "id": 34,
          "value": 0.0
        },
        {
          "id": 35,
          "value": 0.0
        },
        {
          "id": 36,
          "value": -1.0
        },
        {
          "id": 37,
          "value": 0.0
        },
        {
          "id": 38,
          "value": 0.0
        },
        {
          "id": 39,
          "value": 0.0
        },
        {
          "id": 40,
          "value": 0.0
        },
        {
          "id": 41,
          "value": 0.0
        },
        {
          "id": 42,
          "value": 1.0
        },
        {
          "id": 43,
          "value": 1.0
        },
        {
          "id": 44,
          "value": 1.0
        },
        {
          "id": 45,
          "value": 1.0
        },
        {
          "id": 46,
          "value": 0.0
        },
        {
          "id": 47,
          "value": 0.0
        },
        {
          "id": 48,
          "value": 0.0
        },
        {
          "id": 49,
          "value": 0.0
        },
        {
          "id": 50,
          "value": 0.0
        },
        {
          "id": 51,
          "value": 0.0
        }
      ],
      "pos": [
        74,
        2
      ]
    },
    {
      "id": 131,
      "plugin": "mscHack",
      "version": "1.0.2",
      "model": "Dronez",
      "params": [
        {
          "id": 0,
          "value": 5.0
        }
      ],
      "leftModuleId": 119,
      "rightModuleId": 115,
      "data": {
        "m_Seed": [
          -1446638601
        ]
      },
      "pos": [
        75,
        1
      ]
    },
    {
      "id": 135,
      "plugin": "Valley",
      "version": "1.1.7",
      "model": "Plateau",
      "params": [
        {
          "id": 0,
          "value": 1.0
        },
        {
          "id": 1,
          "value": 0.25
        },
        {
          "id": 2,
          "value": 0.0
        },
        {
          "id": 3,
          "value": 10.0
        },
        {
          "id": 4,
          "value": 10.0
        },
        {
          "id": 5,
          "value": 0.5
        },
        {
          "id": 6,
          "value": 10.0
        },
        {
          "id": 7,
          "value": 0.109448962
        },
        {
          "id": 8,
          "value": 2.17499971
        },
        {
          "id": 9,
          "value": 6.41500187
        },
        {
          "id": 10,
          "value": 0.0235002842
        },
        {
          "id": 11,
          "value": 1.0
        },
        {
          "id": 12,
          "value": 0.5
        },
        {
          "id": 13,
          "value": 0.0
        },
        {
          "id": 14,
          "value": 0.0
        },
        {
          "id": 15,
          "value": 0.0
        },
        {
          "id": 16,
          "value": 0.0
        },
        {
          "id": 17,
          "value": 0.0
        },
        {
          "id": 18,
          "value": 0.0
        },
        {
          "id": 19,
          "value": 0.0
        },
        {
          "id": 20,
          "value": 0.0
        },
        {
          "id": 21,
          "value": 0.0
        },
        {
          "id": 22,
          "value": 0.0
        },
        {
          "id": 23,
          "value": 0.0
        },
        {
          "id": 24,
          "value": 0.0
        },
        {
          "id": 25,
          "value": 0.0
        },
        {
          "id": 26,
          "value": 0.0
        },
        {
          "id": 27,
          "value": 0.0
        },
        {
          "id": 28,
          "value": 0.0
        },
        {
          "id": 29,
          "value": 0.0
        },
        {
          "id": 30,
          "value": 1.0
        }
      ],
      "data": {
        "frozen": false,
        "freezeToggle": false,
        "panelStyle": 0,
        "tuned": 0,
        "diffuseInput": 1,
        "preDelayCVSens": 0,
        "inputSensitivity": 0,
        "outputSaturation": 0
      },
      "pos": [
        102,
        1
      ]
    }
  ],
  "cables": [
    {
      "id": 110,
      "outputModuleId": 65,
      "outputId": 7,
      "inputModuleId": 68,
      "inputId": 2,
      "color": "#0c8e15"
    },
    {
      "id": 109,
      "outputModuleId": 65,
      "outputId": 9,
      "inputModuleId": 68,
      "inputId": 1,
      "color": "#0c8e15"
    },
    {
      "id": 145,
      "outputModuleId": 65,
      "outputId": 0,
      "inputModuleId": 84,
      "inputId": 0,
      "color": "#0c8e15"
    },
    {
      "id": 123,
      "outputModuleId": 65,
      "outputId": 1,
      "inputModuleId": 84,
      "inputId": 2,
      "color": "#c9b70e"
    },
    {
      "id": 149,
      "outputModuleId": 68,
      "outputId": 0,
      "inputModuleId": 101,
      "inputId": 1,
      "color": "#c91847"
    },
    {
      "id": 150,
      "outputModuleId": 68,
      "outputId": 0,
      "inputModuleId": 101,
      "inputId": 4,
      "color": "#c91847"
    },
    {
      "id": 169,
      "outputModuleId": 65,
      "outputId": 6,
      "inputModuleId": 101,
      "inputId": 3,
      "color": "#0c8e15"
    },
    {
      "id": 170,
      "outputModuleId": 65,
      "outputId": 4,
      "inputModuleId": 101,
      "inputId": 2,
      "color": "#0c8e15"
    },
    {
      "id": 126,
      "outputModuleId": 104,
      "outputId": 0,
      "inputModuleId": 84,
      "inputId": 3,
      "color": "#0986ad"
    },
    {
      "id": 125,
      "outputModuleId": 84,
      "outputId": 0,
      "inputModuleId": 68,
      "inputId": 0,
      "color": "#c9b70e"
    },
    {
      "id": 171,
      "outputModuleId": 84,
      "outputId": 0,
      "inputModuleId": 101,
      "inputId": 0,
      "color": "#c9b70e"
    },
    {
      "id": 183,
      "outputModuleId": 104,
      "outputId": 5,
      "inputModuleId": 90,
      "inputId": 8,
      "color": "#0986ad"
    },
    {
      "id": 181,
      "outputModuleId": 104,
      "outputId": 4,
      "inputModuleId": 90,
      "inputId": 7,
      "color": "#0986ad"
    },
    {
      "id": 176,
      "outputModuleId": 104,
      "outputId": 3,
      "inputModuleId": 65,
      "inputId": 2,
      "color": "#0986ad"
    },
    {
      "id": 188,
      "outputModuleId": 104,
      "outputId": 3,
      "inputModuleId": 109,
      "inputId": 5,
      "color": "#0986ad"
    },
    {
      "id": 195,
      "outputModuleId": 68,
      "outputId": 0,
      "inputModuleId": 109,
      "inputId": 6,
      "color": "#c9b70e"
    },
    {
      "id": 182,
      "outputModuleId": 65,
      "outputId": 3,
      "inputModuleId": 104,
      "inputId": 6,
      "color": "#0c8e15"
    },
    {
      "id": 158,
      "outputModuleId": 90,
      "outputId": 0,
      "inputModuleId": 113,
      "inputId": 2,
      "color": "#c91847"
    },
    {
      "id": 200,
      "outputModuleId": 65,
      "outputId": 10,
      "inputModuleId": 113,
      "inputId": 0,
      "color": "#0c8e15"
    },
    {
      "id": 202,
      "outputModuleId": 90,
      "outputId": 0,
      "inputModuleId": 113,
      "inputId": 3,
      "color": "#c91847"
    },
    {
      "id": 209,
      "outputModuleId": 104,
      "outputId": 2,
      "inputModuleId": 115,
      "inputId": 2,
      "color": "#0986ad"
    },
    {
      "id": 210,
      "outputModuleId": 104,
      "outputId": 1,
      "inputModuleId": 115,
      "inputId": 1,
      "color": "#0986ad"
    },
    {
      "id": 211,
      "outputModuleId": 65,
      "outputId": 8,
      "inputModuleId": 115,
      "inputId": 0,
      "color": "#0c8e15"
    },
    {
      "id": 212,
      "outputModuleId": 84,
      "outputId": 0,
      "inputModuleId": 119,
      "inputId": 2,
      "color": "#0986ad"
    },
    {
      "id": 221,
      "outputModuleId": 84,
      "outputId": 0,
      "inputModuleId": 121,
      "inputId": 2,
      "color": "#c9b70e"
    },
    {
      "id": 219,
      "outputModuleId": 119,
      "outputId": 0,
      "inputModuleId": 121,
      "inputId": 5,
      "color": "#0986ad"
    },
    {
      "id": 223,
      "outputModuleId": 84,
      "outputId": 0,
      "inputModuleId": 121,
      "inputId": 3,
      "color": "#0c8e15"
    },
    {
      "id": 192,
      "outputModuleId": 122,
      "outputId": 0,
      "inputModuleId": 63,
      "inputId": 0,
      "color": "#c91847"
    },
    {
      "id": 167,
      "outputModuleId": 101,
      "outputId": 0,
      "inputModuleId": 122,
      "inputId": 4,
      "color": "#c91847"
    },
    {
      "id": 201,
      "outputModuleId": 113,
      "outputId": 0,
      "inputModuleId": 122,
      "inputId": 5,
      "color": "#c91847"
    },
    {
      "id": 189,
      "outputModuleId": 109,
      "outputId": 0,
      "inputModuleId": 122,
      "inputId": 6,
      "color": "#c91847"
    },
    {
      "id": 206,
      "outputModuleId": 115,
      "outputId": 0,
      "inputModuleId": 122,
      "inputId": 8,
      "color": "#c91847"
    },
    {
      "id": 220,
      "outputModuleId": 121,
      "outputId": 0,
      "inputModuleId": 122,
      "inputId": 9,
      "color": "#c91847"
    },
    {
      "id": 168,
      "outputModuleId": 101,
      "outputId": 1,
      "inputModuleId": 123,
      "inputId": 4,
      "color": "#c91847"
    },
    {
      "id": 159,
      "outputModuleId": 113,
      "outputId": 1,
      "inputModuleId": 123,
      "inputId": 5,
      "color": "#c91847"
    },
    {
      "id": 196,
      "outputModuleId": 109,
      "outputId": 1,
      "inputModuleId": 123,
      "inputId": 6,
      "color": "#c91847"
    },
    {
      "id": 207,
      "outputModuleId": 115,
      "outputId": 0,
      "inputModuleId": 123,
      "inputId": 8,
      "color": "#c91847"
    },
    {
      "id": 222,
      "outputModuleId": 121,
      "outputId": 0,
      "inputModuleId": 123,
      "inputId": 9,
      "color": "#c91847"
    },
    {
      "id": 204,
      "outputModuleId": 119,
      "outputId": 0,
      "inputModuleId": 131,
      "inputId": 1,
      "color": "#0986ad"
    },
    {
      "id": 230,
      "outputModuleId": 109,
      "outputId": 1,
      "inputModuleId": 131,
      "inputId": 0,
      "color": "#c9b70e"
    },
    {
      "id": 197,
      "outputModuleId": 123,
      "outputId": 0,
      "inputModuleId": 63,
      "inputId": 1,
      "color": "#c91847"
    },
    {
      "id": 231,
      "outputModuleId": 122,
      "outputId": 2,
      "inputModuleId": 135,
      "inputId": 0,
      "color": "#c91847"
    },
    {
      "id": 234,
      "outputModuleId": 123,
      "outputId": 2,
      "inputModuleId": 135,
      "inputId": 1,
      "color": "#c91847"
    },
    {
      "id": 232,
      "outputModuleId": 135,
      "outputId": 0,
      "inputModuleId": 122,
      "inputId": 0,
      "color": "#c91847"
    },
    {
      "id": 233,
      "outputModuleId": 135,
      "outputId": 1,
      "inputModuleId": 123,
      "inputId": 0,
      "color": "#c91847"
    },
    {
      "id": 203,
      "outputModuleId": 131,
      "outputId": 1,
      "inputModuleId": 123,
      "inputId": 7,
      "color": "#c91847"
    },
    {
      "id": 205,
      "outputModuleId": 131,
      "outputId": 0,
      "inputModuleId": 122,
      "inputId": 7,
      "color": "#c91847"
    }
  ]
}